<?xml version="1.0" encoding="UTF-8"?>
<svg id="Layer_2" data-name="Layer 2" xmlns="http://www.w3.org/2000/svg" xmlns:xlink="http://www.w3.org/1999/xlink" viewBox="0 0 367.03 203.76">
  <defs>
    <style>
      .cls-1 {
        fill: url(#linear-gradient);
      }

      .cls-2 {
        fill: #eaeae1;
      }

      .cls-3 {
        fill: #aaa88f;
      }

      .cls-4 {
        fill: #cca483;
      }

      .cls-5 {
        fill: #dbb491;
      }

      .cls-6 {
        fill: #e0dbd3;
      }

      .cls-7 {
        fill: #c6c5af;
      }

      .cls-8 {
        fill: #3a3a38;
      }

      .cls-9 {
        fill: #4c4c4c;
      }

      .cls-10 {
        fill: #515151;
      }

      .cls-11 {
        fill: #171d10;
        stroke: #fff;
        stroke-miterlimit: 10;
        stroke-width: .5px;
      }
    </style>
    <linearGradient id="linear-gradient" x1="186.7" y1="203.76" x2="186.7" y2="106.76" gradientTransform="translate(341.96 -31.43) rotate(90)" gradientUnits="userSpaceOnUse">
      <stop offset="0" stop-color="#fff"/>
      <stop offset=".41" stop-color="#f5f5f1"/>
      <stop offset="1" stop-color="#eaeae1"/>
    </linearGradient>
  </defs>
  <g id="Layer_1-2" data-name="Layer 1">
    <polygon class="cls-2" points="138.02 97.02 138.02 199.4 234.97 199.4 234.97 97.02 190.83 101.79 181.89 101.82 138.02 97.02"/>
    <text/>
    <rect class="cls-1" x="138.2" y="107.76" width="97" height="95" transform="translate(31.43 341.96) rotate(-90)"/>
    <g>
      <path class="cls-2" d="m232.52,80.91c-3.55-12.03-21.39-10.7-29.09-14.15-7.7-3.46-6.5-15.05-7.47-17.06h-18.78c-.97,2.02.23,13.61-7.47,17.06-7.7,3.46-25.54,2.12-29.09,14.15-1.96,6.64-1.87,8.67-2.41,16.02,0,0,24.47,4.84,47.81,4.84s48.91-4.84,48.91-4.84c-.54-7.35-.45-9.38-2.41-16.02Z"/>
      <path class="cls-6" d="m232.52,80.91c-3.55-12.03-21.39-10.7-29.09-14.15-7.7-3.46-6.5-15.05-7.47-17.06h-9.94s-.23,16.26,7.47,19.72c7.7,3.46,25.54,2.12,29.09,14.15,1.87,6.32,1.87,8.46,2.33,15,6.13-.9,10.02-1.63,10.02-1.63-.54-7.35-.45-9.38-2.41-16.02Z"/>
      <g>
        <polygon class="cls-7" points="202.42 66.22 191.87 75.36 190.28 65.61 202.42 66.22"/>
        <polygon class="cls-7" points="170.56 66.32 181.26 75.36 182.53 65.61 170.56 66.32"/>
        <polygon class="cls-7" points="190.56 65.61 182.53 65.61 181.92 67.58 191.19 67.64 190.56 65.61"/>
        <polygon class="cls-3" points="182.53 65.61 181.92 67.58 182.27 67.81 182.53 65.61"/>
        <polygon class="cls-3" points="191.19 67.64 190.3 65.68 190.66 67.94 191.19 67.64"/>
        <path class="cls-9" d="m191.02,101.69l.18-2.55-1.94-25.66h-5.11l-2.26,25.66.19,2.57q1.12,1.04,3.94.04c1.18,1,4.18,1,5-.07Z"/>
        <polygon class="cls-8" points="184.18 73.6 189.26 73.49 189.37 74.92 184.18 73.6"/>
        <polygon class="cls-9" points="180.54 66.46 192.56 66.45 191.87 70.56 189.16 73.6 184.18 73.6 181.22 70.56 180.54 66.46"/>
        <path class="cls-2" d="m182.53,65.61l-8.2-4.46s-1.08,1.54-3.77,5.17l10.11,7.28.86-4.76,1-3.24Z"/>
        <path class="cls-2" d="m190.28,65.61l8.2-4.46s1.24,1.43,3.94,5.07l-10.27,7.38-.86-4.76-1-3.24Z"/>
        <path class="cls-6" d="m198.48,61.16l-8.2,4.46.57,1.84c.76.83,1.63,1.5,2.64,1.96.89.4,1.92.74,3.05,1.04l5.88-4.22c-2.69-3.63-3.94-5.07-3.94-5.07Z"/>
      </g>
      <g>
        <ellipse class="cls-4" cx="208.57" cy="37.9" rx="6.82" ry="3.71" transform="translate(134.36 236.47) rotate(-79.8)"/>
        <ellipse class="cls-5" cx="164.51" cy="37.9" rx="3.71" ry="6.82" transform="translate(-4.11 29.72) rotate(-10.2)"/>
        <path class="cls-5" d="m207.02,15.21h-40.92s-11.47,46.72,20.45,51.25c31.94-4.52,20.47-51.25,20.47-51.25Z"/>
        <path class="cls-4" d="m186.55,66.46c31.94-4.52,20.47-51.25,20.47-51.25h-4.79c1.31,19.52,3.13,29.88-4.4,41.19-5.96,8.96-11.28,10.06-11.28,10.06Z"/>
        <path class="cls-4" d="m197.15,17.72l-32.62,8.96c2.76,1.11,8.15,3.14,19.68,3.09,6.42-.03,20.53-1.99,23.65-9.5l-10.71-2.56Z"/>
        <path class="cls-10" d="m206.91,10.85s-2.43-8.71-18.49-10.65c-12.82-1.55-23.09,6.54-37.68,4.72-.07,8.09,1.98,17.32,10.01,20.82-.08,3.44.15,7.92,3.46,11.56,0,0-.29-5.91.3-10.62,0,0,7.28,1.78,15.63,1.8,8.88.02,20.71-1.44,27.71-8.2,0,0,1.05,6.43,1.05,17.01,0,0,2.39-2.53,2.79-6.38.91-8.74,1.76-20.47-4.79-20.07Z"/>
      </g>
    </g>
    <g>
      <path class="cls-9" d="m9.42,157.07v-10.5c4.99,4.02,10.06,6.84,15.21,8.45,1.53.4,3.02.71,4.47.91,1.45.2,2.94.3,4.47.3,4.91,0,8.97-1.13,12.19-3.38,3.3-2.41,4.95-5.11,4.95-8.09,0-1.61-.6-3.26-1.81-4.95-1.69-2.09-6.2-3.98-13.52-5.67-8.69-2.17-14.48-3.98-17.38-5.43-5.63-3.22-8.45-7.73-8.45-13.52,0-5.39,2.33-9.82,7-13.28,4.75-3.54,10.66-5.31,17.74-5.31,3.22,0,6.11.28,8.69.84,2.57.56,4.99,1.31,7.24,2.23,2.25.93,4.35,2.07,6.28,3.44v10.5c-3.38-2.82-6.92-5.05-10.62-6.7-3.7-1.65-7.6-2.47-11.71-2.47s-7.65.93-10.62,2.78c-3.06,1.85-4.59,4.27-4.59,7.24,0,3.94,3.62,7.08,10.86,9.42,3.38.97,6.72,1.93,10.02,2.9,3.3.97,6.64,1.93,10.02,2.9,7.32,3.14,10.98,7.89,10.98,14.24,0,5.39-2.53,10.14-7.6,14.24-5.15,4.02-11.55,6.04-19.19,6.04-3.38,0-6.68-.36-9.9-1.09-5.15-1.13-10.06-3.14-14.73-6.04Z"/>
      <path class="cls-9" d="m78.1,78.97h7.97v18.95h17.02v7.85h-17.02v41.04c0,3.38.62,5.79,1.87,7.24,1.25,1.45,3.4,2.17,6.46,2.17,1.77,0,3.28-.2,4.53-.6,1.25-.4,2.63-.92,4.16-1.57v7.85c-1.29.4-2.84.78-4.65,1.15-1.81.36-3.64.54-5.49.54-4.83,0-8.57-1.09-11.23-3.26-2.98-2.25-4.47-5.87-4.47-10.86v-43.69h-10.86v-7.85h10.86l.85-18.95Z"/>
      <path class="cls-9" d="m141.95,164.19c-8.29,0-15.57-3.02-21.85-9.05-6.68-6.36-10.02-14.61-10.02-24.74,0-9.58,2.94-17.58,8.81-24.02,6.04-6.52,13.48-9.78,22.33-9.78s16.17,3.26,22.21,9.78c5.95,6.44,8.93,14.41,8.93,23.9,0,9.98-3.22,18.23-9.66,24.74-5.96,6.12-12.88,9.17-20.76,9.17Zm-.85-7.97c5.79,0,10.94-2.41,15.45-7.24,4.35-4.91,6.52-11.14,6.52-18.71s-2.33-14.16-7-19.07c-4.27-4.51-9.21-6.76-14.85-6.76s-10.74,2.33-14.85,7c-4.51,5.15-6.76,11.47-6.76,18.95s2.21,13.88,6.64,18.95c4.1,4.59,9.05,6.88,14.85,6.88Z"/>
      <path class="cls-9" d="m182.15,67.99h8.81v58.54l29.69-28.49h12.31l-27.16,25.11,31.02,39.47h-11.95l-25.59-33.68-8.33,7.73v25.95h-8.81v-94.63Z"/>
      <path class="cls-9" d="m300.92,127.73h-49.13c0,9.25,2.15,16.32,6.46,21.18,4.3,4.87,9.96,7.3,16.96,7.3,5.31,0,10.42-1.69,15.33-5.07,1.37-.88,2.82-1.99,4.35-3.32,1.53-1.33,3.18-2.88,4.95-4.65v10.5c-1.93,1.45-3.72,2.72-5.37,3.8-1.65,1.09-3.2,1.99-4.65,2.72-5.07,2.66-10.14,3.98-15.21,3.98-8.77,0-16.22-3.02-22.33-9.05-6.6-6.36-9.9-14.61-9.9-24.74,0-9.58,2.98-17.58,8.93-24.02,6.04-6.52,13.48-9.78,22.33-9.78s15.45,3.14,20.52,9.41c4.51,5.71,6.76,12.96,6.76,21.73Zm-47.92-7.36h37.78c-.97-5.47-3.04-9.55-6.22-12.25-3.18-2.69-7.02-4.04-11.53-4.04-4.99,0-9.21,1.57-12.67,4.71-3.22,2.9-5.67,6.76-7.36,11.59Z"/>
      <path class="cls-9" d="m355.59,67.99h9.29v94.63h-8.33l-.84-10.5c-1.13,1.61-2.25,3.04-3.38,4.28-1.13,1.25-2.25,2.31-3.38,3.2-4.02,3.06-8.69,4.59-14,4.59-8.29,0-15.17-3.22-20.64-9.66-5.39-6.44-8.09-14.24-8.09-23.42s2.86-17.58,8.57-24.26c5.79-6.84,13.04-10.26,21.73-10.26,3.62,0,7,.65,10.14,1.93,1.13.48,2.43,1.13,3.92,1.93,1.49.81,3.16,1.77,5.01,2.9v-35.37Zm0,63.37v-18.59c-3.78-3.3-7.08-5.51-9.9-6.64-2.82-1.13-5.55-1.69-8.21-1.69-6.6,0-11.95,2.78-16.05,8.33-3.86,5.23-5.79,11.31-5.79,18.23,0,7.4,2.13,13.56,6.4,18.47,3.94,4.51,8.61,6.76,14,6.76s9.9-2.33,13.76-7c3.86-4.67,5.79-10.62,5.79-17.86Z"/>
    </g>
    <g>
      <path class="cls-2" d="m232.52,80.91c-3.55-12.03-21.39-10.7-29.09-14.15-7.7-3.46-6.5-15.05-7.47-17.06h-18.78c-.97,2.02.23,13.61-7.47,17.06-7.7,3.46-25.54,2.12-29.09,14.15-1.96,6.64,22.07,20.86,45.4,20.86,17.5,0,25.89-2.64,34.18-4,2.76-.45,14.73-.84,14.73-.84-.54-7.35-.45-9.38-2.41-16.02Z"/>
      <path class="cls-6" d="m232.52,80.91c-3.55-12.03-21.39-10.7-29.09-14.15-7.7-3.46-6.5-15.05-7.47-17.06h-9.94s-.23,16.26,7.47,19.72c7.7,3.46,25.54,2.12,29.09,14.15,1.87,6.32,1.16,7.67,1.62,14.21,6.13-.9,10.73-.84,10.73-.84-.54-7.35-.45-9.38-2.41-16.02Z"/>
      <g>
        <polygon class="cls-7" points="202.42 66.22 191.87 75.36 190.28 65.61 202.42 66.22"/>
        <polygon class="cls-7" points="170.56 66.32 181.26 75.36 182.53 65.61 170.56 66.32"/>
        <polygon class="cls-7" points="190.56 65.61 182.53 65.61 181.92 67.58 191.19 67.64 190.56 65.61"/>
        <polygon class="cls-3" points="182.53 65.61 181.92 67.58 182.27 67.81 182.53 65.61"/>
        <polygon class="cls-3" points="191.19 67.64 190.3 65.68 190.66 67.94 191.19 67.64"/>
        <path class="cls-9" d="m191.02,101.69l.18-2.55-1.94-25.66h-5.11l-2.26,25.66.19,2.57q1.12,1.04,3.94.04c1.18,1,4.18,1,5-.07Z"/>
        <polygon class="cls-8" points="184.18 73.6 189.26 73.49 189.37 74.92 184.18 73.6"/>
        <polygon class="cls-9" points="180.54 66.46 192.56 66.45 191.87 70.56 189.16 73.6 184.18 73.6 181.22 70.56 180.54 66.46"/>
        <path class="cls-2" d="m182.53,65.61l-8.2-4.46s-1.08,1.54-3.77,5.17l10.11,7.28.86-4.76,1-3.24Z"/>
        <path class="cls-2" d="m190.28,65.61l8.2-4.46s1.24,1.43,3.94,5.07l-10.27,7.38-.86-4.76-1-3.24Z"/>
        <path class="cls-6" d="m198.48,61.16l-8.2,4.46.57,1.84c.76.83,1.63,1.5,2.64,1.96.89.4,1.92.74,3.05,1.04l5.88-4.22c-2.69-3.63-3.94-5.07-3.94-5.07Z"/>
      </g>
      <g>
        <ellipse class="cls-4" cx="208.57" cy="37.9" rx="6.82" ry="3.71" transform="translate(134.36 236.47) rotate(-79.8)"/>
        <ellipse class="cls-5" cx="164.51" cy="37.9" rx="3.71" ry="6.82" transform="translate(-4.11 29.72) rotate(-10.2)"/>
        <path class="cls-5" d="m207.02,15.21h-40.92s-11.47,46.72,20.45,51.25c31.94-4.52,20.47-51.25,20.47-51.25Z"/>
        <path class="cls-4" d="m186.55,66.46c31.94-4.52,20.47-51.25,20.47-51.25h-4.79c1.31,19.52,3.13,29.88-4.4,41.19-5.96,8.96-11.28,10.06-11.28,10.06Z"/>
        <path class="cls-4" d="m197.15,17.72l-32.62,8.96c2.76,1.11,8.15,3.14,19.68,3.09,6.42-.03,20.53-1.99,23.65-9.5l-10.71-2.56Z"/>
        <path class="cls-10" d="m206.91,10.85s-2.43-8.71-18.49-10.65c-12.82-1.55-23.09,6.54-37.68,4.72-.07,8.09,1.98,17.32,10.01,20.82-.08,3.44.15,7.92,3.46,11.56,0,0-.29-5.91.3-10.62,0,0,7.28,1.78,15.63,1.8,8.88.02,20.71-1.44,27.71-8.2,0,0,1.05,6.43,1.05,17.01,0,0,2.39-2.53,2.79-6.38.91-8.74,1.76-20.47-4.79-20.07Z"/>
      </g>
    </g>
    <g>
      <path class="cls-11" d="m39.99,199.26c-1.54.6-5.23,1.29-9.91,1.29-15.46,0-22.12-8.45-22.12-18.05,0-12.98,10.95-19.23,23.06-19.23,4.56,0,8.14.71,9.69,1.42l-2.11,7.45c-1.65-.58-3.92-1.12-6.93-1.12-6.31,0-11.64,3.31-11.64,10.94,0,6.89,4.47,10.74,11.75,10.74,2.4,0,5.17-.38,6.78-.85l1.42,7.42Z"/>
      <path class="cls-11" d="m81.89,181.41c0,12.29-7.86,19.19-20.2,19.19-13.06,0-19.44-8.82-19.44-18.57s7.34-18.81,20.14-18.81c13.67,0,19.5,9.32,19.5,18.19Zm-27.6.52c0,7.35,3.14,11.11,7.91,11.11s7.65-4.48,7.65-11.29c0-6.25-2.73-10.98-7.71-10.98-4.7,0-7.84,4.1-7.84,11.16Z"/>
      <path class="cls-11" d="m87.99,200.05v-36.29h12.67l6.84,11.7c2.03,3.22,4.49,8,6.21,11.81h.17c-.54-4.23-.92-9.9-.92-15.75v-7.76h10.32v36.29h-11.62l-7.1-12.11c-2.15-3.54-4.8-8.38-6.53-12.26h-.2c.27,4.37.49,10,.49,16.26v8.11h-10.32Z"/>
      <path class="cls-11" d="m131.67,190.8c2.48,1.03,6.52,1.99,10.42,1.99s5.94-1.23,5.94-3.06-1.96-2.92-6.66-4.46c-7.42-2.57-11.29-6.13-11.29-10.71,0-6.29,6.08-11.29,17.07-11.29,4.64,0,8.18.76,10.65,1.69l-2.19,7.59c-1.74-.67-4.63-1.58-8.53-1.58-3.58,0-5.48,1.2-5.48,2.81,0,1.76,1.93,2.58,7.38,4.48,7.48,2.52,10.6,6.11,10.6,10.76,0,6.44-6.08,11.53-18.01,11.53-4.92,0-9.64-1.01-11.88-1.97l1.98-7.78Z"/>
      <path class="cls-11" d="m176.84,163.76v21.4c0,5.27,2.11,7.86,5.98,7.86s5.98-2.29,5.98-7.86v-21.4h11.44v20.54c0,10.64-6.05,16.3-17.66,16.3s-17.17-5.61-17.17-16.49v-20.35h11.44Z"/>
      <path class="cls-11" d="m208.18,163.76h11.44v28.48h15.3v7.82h-26.74v-36.29Z"/>
      <path class="cls-11" d="m241.84,171.79h-10.28v-8.04h32.17v8.04h-10.45v28.26h-11.44v-28.26Z"/>
      <path class="cls-11" d="m280.44,163.76v36.29h-11.44v-36.29h11.44Z"/>
      <path class="cls-11" d="m288.52,200.05v-36.29h12.67l6.84,11.7c2.03,3.22,4.49,8,6.21,11.81h.17c-.54-4.23-.92-9.9-.92-15.75v-7.76h10.32v36.29h-11.62l-7.1-12.11c-2.15-3.54-4.8-8.38-6.53-12.26h-.2c.27,4.37.49,10,.49,16.26v8.11h-10.32Z"/>
      <path class="cls-11" d="m366.78,198.57c-2.93.82-8.61,1.83-13.72,1.83-7.81,0-13.21-1.63-16.88-4.51-4.17-3.21-6.3-8.13-6.23-13.6.13-12.67,11.02-18.89,24.2-18.89,5.31,0,9.31.79,11.36,1.58l-2.18,7.59c-2.16-.76-4.78-1.32-8.95-1.32-6.96,0-12.45,3.15-12.45,10.91,0,7.02,4.89,10.66,11.04,10.66,1.27,0,2.46-.08,2.97-.25v-6.59h-5.15v-7.32h16.01v19.89Z"/>
    </g>
  </g>
</svg>